<svg width="22" height="22" viewBox="0 0 22 22" fill="none" xmlns="http://www.w3.org/2000/svg">
<g clip-path="url(#clip0_10_33)">
<path d="M18.9279 0H3.07207C1.3755 0 0 1.3755 0 3.07207V18.9279C0 20.6245 1.3755 22 3.07207 22H18.9279C20.6245 22 22 20.6245 22 18.9279V3.07207C22 1.3755 20.6245 0 18.9279 0ZM12.4568 7.91207H19.1499V9.89405H12.4568V7.91207ZM2.81045 7.91207H9.50559V9.89405H2.81045V7.91207ZM9.5036 18.2798H2.81045V16.2978H9.50559V18.2798H9.5036ZM9.54126 14.0859H2.81045V12.104H9.54324V14.0859H9.54126ZM9.54126 5.70018H2.81045V3.7182H9.54324V5.70018H9.54126ZM19.1479 18.2798H12.4568V16.2978H19.1499V18.2798H19.1479ZM19.1876 14.0859H12.4568V12.104H19.1876V14.0859ZM19.1876 5.70018H12.4568V3.7182H19.1876V5.70018Z" fill="#003B90"/>
</g>
<defs>
<clipPath id="clip0_10_33">
<rect width="22" height="22" fill="white"/>
</clipPath>
</defs>
</svg>
