<svg width="26" height="30" viewBox="0 0 26 30" fill="none" xmlns="http://www.w3.org/2000/svg">
<g clip-path="url(#clip0_19_146)">
<path d="M6.28708 1.33812C6.28708 0.599098 6.88673 0 7.62645 0C8.36616 0 8.96582 0.599098 8.96582 1.33812V4.62244C8.96582 5.36147 8.36616 5.96056 7.62645 5.96056C6.88673 5.96056 6.28708 5.36147 6.28708 4.62244V1.33812Z" fill="#003B90"/>
<path d="M4.02094 2.63048H5.2808V4.62244C5.2808 5.9148 6.33321 6.96622 7.62677 6.96622C8.92033 6.96622 9.97274 5.9148 9.97274 4.62244V2.63048H16.0275V4.62244C16.0275 5.9148 17.0799 6.96622 18.3734 6.96622C19.667 6.96622 20.7194 5.9148 20.7194 4.62244V2.63048H21.9793C24.1963 2.63048 26 4.43252 26 6.64767V25.9828C26 28.1978 24.1963 30 21.9791 30H4.02074C1.80372 30 -0.000202179 28.198 -0.000202179 25.9828V6.64767C-0.000202179 4.43272 1.80352 2.63048 4.02074 2.63048H4.02094ZM1.47014 11.4955V25.9828C1.47014 27.3903 2.61215 28.5312 4.02094 28.5312H21.9791C23.3879 28.5312 24.5299 27.3903 24.5299 25.9828V11.4955C24.5299 11.2001 24.2901 10.9606 23.9945 10.9606H2.00553C1.70988 10.9606 1.47014 11.2001 1.47014 11.4955Z" fill="#003B90"/>
<path d="M19.7129 4.62244C19.7129 5.36147 19.1133 5.96056 18.3736 5.96056C17.6338 5.96056 17.0342 5.36147 17.0342 4.62244V1.33812C17.0342 0.599097 17.6338 -9.53674e-07 18.3736 -9.53674e-07C19.1133 -9.53674e-07 19.7129 0.599097 19.7129 1.33812V4.62244Z" fill="#003B90"/>
<path d="M4.32013 13.1391H6.22758C6.51111 13.1391 6.74097 13.3687 6.74097 13.652V15.5577C6.74097 15.8409 6.51111 16.0706 6.22758 16.0706H4.32013C4.03659 16.0706 3.80674 15.8409 3.80674 15.5577V13.652C3.80674 13.3687 4.03659 13.1391 4.32013 13.1391Z" fill="#003B90"/>
<path d="M9.47076 13.1391H11.3782C11.6617 13.1391 11.8916 13.3687 11.8916 13.652V15.5577C11.8916 15.8409 11.6617 16.0706 11.3782 16.0706H9.47076C9.18723 16.0706 8.95737 15.8409 8.95737 15.5577V13.652C8.95737 13.3687 9.18723 13.1391 9.47076 13.1391Z" fill="#003B90"/>
<path d="M14.6216 13.1391H16.5291C16.8126 13.1391 17.0425 13.3687 17.0425 13.652V15.5577C17.0425 15.8409 16.8126 16.0706 16.5291 16.0706H14.6216C14.3381 16.0706 14.1083 15.8409 14.1083 15.5577V13.652C14.1083 13.3687 14.3381 13.1391 14.6216 13.1391Z" fill="#003B90"/>
<path d="M4.32013 18.317H6.22758C6.51111 18.317 6.74097 18.5466 6.74097 18.8299V20.7356C6.74097 21.0188 6.51111 21.2485 6.22758 21.2485H4.32013C4.03659 21.2485 3.80674 21.0188 3.80674 20.7356V18.8299C3.80674 18.5466 4.03659 18.317 4.32013 18.317Z" fill="#003B90"/>
<path d="M9.47076 18.317H11.3782C11.6617 18.317 11.8916 18.5466 11.8916 18.8299V20.7356C11.8916 21.0188 11.6617 21.2485 11.3782 21.2485H9.47076C9.18723 21.2485 8.95737 21.0188 8.95737 20.7356V18.8299C8.95737 18.5466 9.18723 18.317 9.47076 18.317Z" fill="#003B90"/>
<path d="M14.6216 18.317H16.5291C16.8126 18.317 17.0425 18.5466 17.0425 18.8299V20.7356C17.0425 21.0188 16.8126 21.2485 16.5291 21.2485H14.6216C14.3381 21.2485 14.1083 21.0188 14.1083 20.7356V18.8299C14.1083 18.5466 14.3381 18.317 14.6216 18.317Z" fill="#003B90"/>
<path d="M19.7723 18.317H21.6797C21.9633 18.317 22.1931 18.5466 22.1931 18.8299V20.7356C22.1931 21.0188 21.9633 21.2485 21.6797 21.2485H19.7723C19.4887 21.2485 19.2589 21.0188 19.2589 20.7356V18.8299C19.2589 18.5466 19.4887 18.317 19.7723 18.317Z" fill="#003B90"/>
<path d="M9.47076 23.4949H11.3782C11.6617 23.4949 11.8916 23.7245 11.8916 24.0078V25.9135C11.8916 26.1967 11.6617 26.4264 11.3782 26.4264H9.47076C9.18723 26.4264 8.95737 26.1967 8.95737 25.9135V24.0078C8.95737 23.7245 9.18723 23.4949 9.47076 23.4949Z" fill="#003B90"/>
<path d="M14.6216 23.4949H16.5291C16.8126 23.4949 17.0425 23.7245 17.0425 24.0078V25.9135C17.0425 26.1967 16.8126 26.4264 16.5291 26.4264H14.6216C14.3381 26.4264 14.1083 26.1967 14.1083 25.9135V24.0078C14.1083 23.7245 14.3381 23.4949 14.6216 23.4949Z" fill="#003B90"/>
<path d="M19.7723 23.4949H21.6797C21.9633 23.4949 22.1931 23.7245 22.1931 24.0078V25.9135C22.1931 26.1967 21.9633 26.4264 21.6797 26.4264H19.7723C19.4887 26.4264 19.2589 26.1967 19.2589 25.9135V24.0078C19.2589 23.7245 19.4887 23.4949 19.7723 23.4949Z" fill="#003B90"/>
</g>
<defs>
<clipPath id="clip0_19_146">
<rect width="26" height="30" fill="white" transform="matrix(-1 0 0 1 26 0)"/>
</clipPath>
</defs>
</svg>
