<svg width="29" height="25" viewBox="0 0 29 25" fill="none" xmlns="http://www.w3.org/2000/svg">
<g clip-path="url(#clip0_26_176)">
<path fill-rule="evenodd" clip-rule="evenodd" d="M15.4025 8.4929V8.47923C14.1056 7.15674 12.5373 6.49619 10.6962 6.49619C8.85511 6.49619 7.30417 7.15674 6.00325 8.47923L5.99656 8.4929C4.70366 9.81539 4.05788 11.4155 4.05788 13.2932C4.05788 14.4598 4.30924 15.5224 4.8133 16.4798L0.72201 20.6647C0.240683 21.157 1.86163e-05 21.7519 1.86163e-05 22.4494C-0.00934054 23.1469 0.231323 23.7459 0.72201 24.2478C1.20334 24.7402 1.78494 24.9904 2.46682 25C3.1487 25 3.73432 24.7538 4.22501 24.2615L8.53022 19.8509C8.55696 19.8195 8.58637 19.7921 8.61712 19.7689C9.26825 19.9836 9.96083 20.0903 10.6962 20.0903C12.5373 20.0903 14.1056 19.4242 15.4025 18.0936C16.7034 16.7629 17.3546 15.1628 17.3546 13.2932C17.3546 11.4237 16.7034 9.81539 15.4025 8.4929ZM13.758 16.4046V16.4182C12.9156 17.2798 11.8955 17.7106 10.6962 17.7106C9.49688 17.7106 8.49278 17.2798 7.6411 16.4182C6.79877 15.5566 6.37761 14.5145 6.37761 13.2932C6.37761 12.072 6.79877 11.0298 7.6411 10.1682C8.49278 9.30663 9.51025 8.87584 10.6962 8.87584C11.8821 8.87584 12.9156 9.30663 13.758 10.1682C14.6003 11.0298 15.0215 12.072 15.0215 13.2932C15.0215 14.5145 14.6003 15.5525 13.758 16.4046Z" fill="white"/>
<path fill-rule="evenodd" clip-rule="evenodd" d="M28.3247 0C28.5213 0 28.6817 0.071116 28.8061 0.21198C28.9358 0.339168 28.9999 0.499179 28.9999 0.690646V18.032C28.9999 18.2194 28.9358 18.3835 28.8061 18.5243L22.6825 24.8017C22.5488 24.9344 22.3884 25 22.2012 25H10.6493C10.4661 25 10.3111 24.9344 10.1814 24.8017C10.0436 24.6608 9.97412 24.4967 9.97412 24.3094V21.0818C10.2148 21.1091 10.4554 21.1228 10.6961 21.1228C10.914 21.1228 11.124 21.1132 11.3245 21.0955V23.6187H21.526V18.032C21.526 17.8446 21.5955 17.686 21.7332 17.5533C21.8629 17.4125 22.018 17.3414 22.2012 17.3414H27.6562V1.38129H11.3245V5.50465C11.124 5.48687 10.914 5.4773 10.6961 5.4773C10.4554 5.4773 10.2148 5.48687 9.97412 5.50465V0.690646C9.97412 0.499179 10.0436 0.339168 10.1814 0.21198C10.3111 0.071116 10.4661 0 10.6493 0H28.3247V0Z" fill="white"/>
<path fill-rule="evenodd" clip-rule="evenodd" d="M20.5901 10.9272C20.5901 10.7399 20.6596 10.5812 20.7973 10.4486C20.9217 10.3118 21.0781 10.2434 21.2653 10.2434H25.3766C25.5638 10.2434 25.7242 10.3118 25.858 10.4486C25.8753 10.4664 25.8941 10.4869 25.9114 10.5101C26.005 10.6332 26.0518 10.7727 26.0518 10.9272C26.0518 11.0914 26.005 11.235 25.9114 11.358C25.8941 11.3854 25.8753 11.4059 25.858 11.4196C25.7242 11.5522 25.5638 11.6179 25.3766 11.6179H21.2653C21.0781 11.6179 20.9217 11.5522 20.7973 11.4196C20.6596 11.2828 20.5901 11.1187 20.5901 10.9272Z" fill="white"/>
<path fill-rule="evenodd" clip-rule="evenodd" d="M18.0965 8.54074C17.9628 8.40398 17.896 8.23987 17.896 8.0484C17.896 7.85694 17.9628 7.7024 18.0965 7.56974C18.2262 7.42887 18.384 7.35776 18.5712 7.35776H25.3766C25.5638 7.35776 25.7243 7.42887 25.858 7.56974C25.8753 7.58752 25.8941 7.60803 25.9114 7.63128C26.005 7.74479 26.0518 7.88429 26.0518 8.0484C26.0518 8.20294 26.005 8.34654 25.9114 8.4792C25.8941 8.50655 25.8753 8.52707 25.858 8.54074C25.7243 8.6734 25.5638 8.73905 25.3766 8.73905H18.5712C18.384 8.73905 18.2262 8.6734 18.0965 8.54074Z" fill="white"/>
<path fill-rule="evenodd" clip-rule="evenodd" d="M26.0518 5.19693C26.0518 5.3843 25.9876 5.54841 25.858 5.68927C25.7243 5.81646 25.5638 5.88074 25.3766 5.88074H18.5712C18.384 5.88074 18.2262 5.81646 18.0965 5.68927C17.9628 5.54841 17.896 5.3843 17.896 5.19693C17.896 5.00957 17.9628 4.84409 18.0965 4.71143C18.2262 4.57467 18.384 4.50629 18.5712 4.50629H25.3766C25.5638 4.50629 25.7243 4.57467 25.858 4.71143C25.9917 4.84819 26.0518 5.00547 26.0518 5.19693Z" fill="white"/>
</g>
<defs>
<clipPath id="clip0_26_176">
<rect width="29" height="25" fill="white"/>
</clipPath>
</defs>
</svg>
