<svg width="34" height="20" viewBox="0 0 34 20" fill="none" xmlns="http://www.w3.org/2000/svg">
<path d="M18.3982 0H1.46066C0.657295 0 0 0.655341 0 1.45631V15.6068C0 16.4078 0.657295 17.0631 1.46066 17.0631H4.03506C4.18721 18.7015 5.55658 19.994 7.24242 19.994C8.92826 19.994 10.2976 18.7015 10.4498 17.0631H19.5545C19.7249 17.0631 19.8588 16.9296 19.8588 16.7597V1.45631C19.8588 0.655341 19.2015 0 18.3982 0ZM7.24242 18.483C6.29299 18.483 5.52615 17.7185 5.52615 16.7719C5.52615 15.8253 6.29299 15.0607 7.24242 15.0607C8.19184 15.0607 8.95869 15.8253 8.95869 16.7719C8.95869 17.7185 8.19184 18.483 7.24242 18.483Z" fill="#003B90"/>
<path d="M33.023 9.90898L28.6349 4.05945C28.3428 3.6711 27.8802 3.44052 27.3933 3.44052H23.4678C22.634 3.44052 21.9585 4.11407 21.9585 4.94538V16.7658C21.9585 16.9357 22.0924 17.0692 22.2628 17.0692H24.3625C24.5146 18.7075 25.884 20 27.5698 20C29.2557 20 30.625 18.7075 30.7772 17.0692H31.7875C32.6395 17.0692 33.3333 16.3774 33.3333 15.5279V10.8374C33.3333 10.5097 33.2238 10.176 33.023 9.91504V9.90898ZM27.5698 18.483C26.6204 18.483 25.8536 17.7184 25.8536 16.7718C25.8536 15.8252 26.6204 15.0607 27.5698 15.0607C28.5193 15.0607 29.2861 15.8252 29.2861 16.7718C29.2861 17.7184 28.5193 18.483 27.5698 18.483ZM29.6452 9.67839C29.5965 9.78155 29.487 9.8483 29.3713 9.8483H26.7969C26.6265 9.8483 26.4926 9.7148 26.4926 9.5449V6.14684C26.4926 6.01941 26.5778 5.89805 26.6995 5.86164C26.8273 5.81916 26.9612 5.86164 27.0404 5.9648L29.6148 9.36286C29.6817 9.45388 29.6939 9.57524 29.6452 9.67839Z" fill="#003B90"/>
</svg>
