<svg width="22" height="22" viewBox="0 0 22 22" fill="none" xmlns="http://www.w3.org/2000/svg">
<g clip-path="url(#clip0_513_414)">
<path d="M10.0351 15.7673C10.1625 15.8939 10.3172 15.9934 10.481 16.0658H10.4991C10.6538 16.1291 10.8176 16.1653 10.9996 16.1653C11.1815 16.1653 11.3453 16.1291 11.5 16.0658H11.5182C11.6819 15.9934 11.8366 15.8939 11.964 15.7673L18.3602 9.40789C18.897 8.87418 18.897 8.0148 18.3602 7.49013C17.8234 6.95641 16.959 6.95641 16.4313 7.49013L12.3643 11.5337V1.35691C12.3643 0.606086 11.7547 0 10.9996 0C10.2444 0 9.6348 0.606086 9.6348 1.35691V11.5337L5.5678 7.49013C5.03099 6.95641 4.16664 6.95641 3.63893 7.49013C3.10213 8.02385 3.10213 8.88322 3.63893 9.40789L10.0351 15.7673Z" fill="white"/>
<path d="M20.6352 15.2245C19.8801 15.2245 19.2705 15.8306 19.2705 16.5814V18.5716C19.2705 18.9696 18.9429 19.2862 18.5426 19.2862H3.4483C3.04797 19.2862 2.72953 18.9605 2.72953 18.5716V16.5814C2.72953 15.8306 2.11993 15.2245 1.36476 15.2245C0.609595 15.2245 0 15.8306 0 16.5814V18.5716C0 20.4622 1.54673 22 3.4483 22H18.5426C20.4442 22 22 20.4622 22 18.5716V16.5814C22 15.8306 21.3904 15.2245 20.6352 15.2245Z" fill="white"/>
</g>
<defs>
<clipPath id="clip0_513_414">
<rect width="22" height="22" fill="white"/>
</clipPath>
</defs>
</svg>
