<svg width="20" height="22" viewBox="0 0 20 22" fill="none" xmlns="http://www.w3.org/2000/svg">
<g clip-path="url(#clip0_32_438)">
<path d="M4.40849 4.79791H10.0907C10.2395 4.79791 10.3605 4.68245 10.3605 4.54055V0H4.13867V4.54055C4.13867 4.68245 4.25972 4.79791 4.40849 4.79791Z" fill="white"/>
<path d="M12.9515 0H11.5864V4.54055C11.5864 5.32717 10.9154 5.96721 10.0907 5.96721H4.40848C3.58379 5.96721 2.91279 5.32717 2.91279 4.54055V0H2.14509C0.960373 0 0 0.916052 0 2.0461V19.9538C0 21.0838 0.960373 22 2.14509 22H17.8548C19.0395 22 20 21.084 20 19.9538V6.1384L12.9515 0ZM16.7139 17.743C16.7139 18.3518 16.1963 18.8454 15.5582 18.8454H4.44171C3.80346 18.8454 3.28602 18.3517 3.28602 17.743V10.9217C3.28602 10.3129 3.80346 9.81932 4.44171 9.81932H15.5582C16.1964 9.81932 16.7139 10.3129 16.7139 10.9217V17.743Z" fill="white"/>
<path d="M14.7498 12.0187C14.7498 12.1714 14.62 12.2954 14.4597 12.2954H5.54009C5.37981 12.2954 5.25 12.1714 5.25 12.0187V11.4171C5.25 11.2642 5.37993 11.1403 5.54009 11.1403H14.4596C14.6199 11.1403 14.7497 11.2642 14.7497 11.4171V12.0187H14.7498Z" fill="white"/>
<path d="M14.7498 14.6332C14.7498 14.7859 14.62 14.9099 14.4597 14.9099H5.54009C5.37981 14.9099 5.25 14.7859 5.25 14.6332V14.0315C5.25 13.8786 5.37993 13.7546 5.54009 13.7546H14.4596C14.6199 13.7546 14.7497 13.8786 14.7497 14.0315V14.6332H14.7498Z" fill="white"/>
<path d="M14.7498 17.2478C14.7498 17.4006 14.62 17.5245 14.4597 17.5245H5.54009C5.37981 17.5245 5.25 17.4006 5.25 17.2478V16.6462C5.25 16.4933 5.37993 16.3694 5.54009 16.3694H14.4596C14.6199 16.3694 14.7497 16.4932 14.7497 16.6462V17.2478H14.7498Z" fill="white"/>
</g>
<defs>
<clipPath id="clip0_32_438">
<rect width="20" height="22" fill="white"/>
</clipPath>
</defs>
</svg>
