<svg width="22" height="22" viewBox="0 0 22 22" fill="none" xmlns="http://www.w3.org/2000/svg">
<g clip-path="url(#clip0_51_877)">
<path d="M22 11V21C22 21.55 21.55 22 21 22H14C13.45 22 13 21.55 13 21V16C13 14.9 12.1 14 11 14C9.9 14 9 14.9 9 16V21C9 21.55 8.55 22 8 22H1C0.45 22 0 21.55 0 21V11C0 10.73 0.11 10.48 0.29 10.29L10.29 0.289998C10.68 -0.100002 11.32 -0.100002 11.71 0.289998L21.71 10.29C21.89 10.48 22 10.73 22 11Z" fill="#003B90"/>
</g>
<defs>
<clipPath id="clip0_51_877">
<rect width="22" height="22" fill="white"/>
</clipPath>
</defs>
</svg>
