<svg width="34" height="34" viewBox="0 0 34 34" fill="none" xmlns="http://www.w3.org/2000/svg">
<path d="M9.65698 3.64368C9.65698 2.30217 10.7466 1.21509 12.0913 1.21509H17.5685C17.9046 1.21509 18.177 1.48686 18.177 1.82224V3.03653C18.177 3.37191 17.9046 3.64368 17.5685 3.64368H12.0913V7.89371C12.0913 8.22909 11.8189 8.50086 11.4827 8.50086H10.2656C9.92939 8.50086 9.65698 8.22909 9.65698 7.89371V3.64368Z" fill="#003B90"/>
<path d="M12.0913 26.1082V30.3582H17.5685C17.9046 30.3582 18.177 30.63 18.177 30.9653V32.1796C18.177 32.515 17.9046 32.7868 17.5685 32.7868H12.0913C10.7466 32.7868 9.65698 31.6997 9.65698 30.3582V26.1082C9.65698 25.7728 9.92939 25.501 10.2656 25.501H11.4827C11.8189 25.501 12.0913 25.7728 12.0913 26.1082Z" fill="#003B90"/>
<path d="M18.1775 18.2152C18.1775 18.5506 17.9051 18.8224 17.5689 18.8224H6.00596V22.6422C6.00596 22.8006 5.81354 22.8804 5.7011 22.7683L0.0558318 17.1362C-0.0189361 17.0617 -0.0189361 16.9408 0.0558318 16.8662L5.70168 11.2336C5.81412 11.1214 6.00654 11.2007 6.00654 11.3597V15.1795H17.5695C17.9057 15.1795 18.1781 15.4513 18.1781 15.7866V18.2152H18.1775Z" fill="#003B90"/>
<path d="M33.0506 3.46619L21.4732 0.0285801C21.0443 -0.0986318 20.6113 0.214772 20.6113 0.652496V33.3396C20.6113 33.7825 21.0495 34.1 21.4836 33.971L33.0506 30.5363C33.6146 30.3686 34 29.8609 34 29.285V4.71749C34 4.14157 33.6146 3.63388 33.0506 3.46619ZM25.4799 18.2152C25.4799 18.8866 24.9357 19.4295 24.2628 19.4295C23.5899 19.4295 23.0456 18.8866 23.0456 18.2152V15.7867C23.0456 15.1159 23.5899 14.5724 24.2628 14.5724C24.9357 14.5724 25.4799 15.1159 25.4799 15.7867V18.2152Z" fill="#003B90"/>
</svg>
