<svg width="19" height="18" viewBox="0 0 19 18" fill="none" xmlns="http://www.w3.org/2000/svg">
<path d="M17.3819 5.40813H8.4256C8.25094 5.40813 8.10938 5.55227 8.10938 5.73011V7.49258C8.10938 7.67042 8.25094 7.81456 8.4256 7.81456H16.708C16.8827 7.81456 17.061 7.6751 17.1052 7.50288L17.6172 5.71888C17.6622 5.54666 17.5565 5.4072 17.3819 5.4072V5.40813Z" fill="#003B90"/>
<path d="M18.7534 0.130096H8.4256C8.25094 0.130096 8.10938 0.274239 8.10938 0.452077V2.40829C8.10938 2.58613 8.25094 2.73027 8.4256 2.73027H18.0299C18.2046 2.73027 18.3829 2.59081 18.427 2.41859L18.9896 0.441781C19.0347 0.269559 18.929 0.130096 18.7543 0.130096H18.7534Z" fill="#003B90"/>
<path d="M8.10938 15.8996V17.6771C8.10938 17.8549 8.25094 17.9991 8.4256 17.9991H14.0156C14.1902 17.9991 14.3704 17.8605 14.4182 17.6893L14.9697 15.8875C15.0175 15.7162 14.9146 15.5777 14.7399 15.5777H8.4256C8.25094 15.5777 8.10938 15.7218 8.10938 15.8996Z" fill="#003B90"/>
<path d="M16.0609 10.4924H8.4256C8.25094 10.4924 8.10938 10.6366 8.10938 10.8144V12.5769C8.10938 12.7547 8.25094 12.8988 8.4256 12.8988H15.3871C15.5617 12.8988 15.7401 12.7594 15.7842 12.5872L16.2962 10.8032C16.3413 10.6309 16.2356 10.4915 16.0609 10.4915V10.4924Z" fill="#003B90"/>
<path d="M5.71085 13.1572L4.6436 14.2439C4.52042 14.3693 4.42022 14.3272 4.42022 14.1493V0.32198C4.42022 0.144142 4.27865 0 4.104 0H2.95769C2.78303 0 2.64147 0.144142 2.64147 0.32198V14.1475C2.64147 14.3253 2.54127 14.3674 2.41809 14.242L1.35084 13.1563C1.22766 13.0308 1.02726 13.0308 0.903164 13.1563L0.0923847 13.9809C-0.0307949 14.1063 -0.0307949 14.3103 0.0923847 14.4367L2.64147 17.0322L3.48718 17.8924C3.48718 17.8924 3.49729 17.9027 3.50924 17.9148C3.52119 17.927 3.54141 17.927 3.55336 17.9148L3.57543 17.8924L4.19684 17.2606C4.32002 17.1351 4.52042 16.9311 4.64452 16.8047L6.9693 14.4376C7.09248 14.3122 7.09248 14.1082 6.9693 13.9818L6.15852 13.1572C6.03534 13.0318 5.83495 13.0318 5.71085 13.1572Z" fill="#003B90"/>
</svg>
