<svg width="65" height="65" viewBox="0 0 65 65" fill="none" xmlns="http://www.w3.org/2000/svg">
<rect width="65" height="65" rx="8" fill="#E5EAF4"/>
<path d="M24.0434 40.0338L25.6319 40.6718L24.4964 45.3287C24.3879 45.7625 24.1391 46.1516 23.7883 46.4323L18.5317 50.5725C18.1617 50.8595 17.7215 51.0063 17.2877 51.0063C16.6945 51.0063 16.1012 50.7447 15.7057 50.2407C15.0167 49.3668 15.1698 48.1037 16.0438 47.4147L20.7517 43.7019L22.0021 38.5666C22.5124 39.2301 23.2077 39.7532 24.037 40.0338H24.0434ZM31.807 21.4509C33.8102 20.7811 34.8883 18.6121 34.212 16.609C34.212 16.5899 34.1929 16.5707 34.1865 16.5516H36.33C36.6808 16.5516 36.9679 16.2645 36.9679 15.9137C36.9679 15.5628 36.6808 15.2757 36.33 15.2757H33.4402C32.4514 14.1721 30.8693 13.7001 29.3702 14.1976C27.3671 14.8738 26.2889 17.0428 26.9588 19.0459C27.6286 21.049 29.8039 22.1271 31.807 21.4509V21.4509ZM41.4334 29.3102H36.2088L32.2281 24.0154C31.8836 23.5561 31.3669 23.2563 30.7991 23.1861L27.0672 22.7013C26.6015 22.6438 26.1231 22.6757 25.6702 22.7906L18.9145 24.5768C18.4743 24.6916 18.0852 24.9532 17.8108 25.3232L14.3979 29.929C13.7345 30.8221 13.9195 32.0788 14.8126 32.7423C15.1698 33.0102 15.5908 33.1378 16.0119 33.1378C16.6243 33.1378 17.2367 32.8571 17.6322 32.3276L20.6305 28.2895L24.7133 27.2114L22.7867 35.1154C22.455 36.5571 23.2652 38.018 24.6686 38.4964L31.8708 41.3671L32.9808 49.2711C33.1212 50.2726 33.9824 50.9999 34.9712 50.9999C35.0605 50.9999 35.1562 50.9935 35.2519 50.9807C36.3491 50.8276 37.121 49.8069 36.9615 48.7097L35.6921 39.6447C35.59 38.9302 35.1115 38.3178 34.4417 38.0499L29.3446 35.9894L30.882 28.8445L33.4465 32.3149C33.8357 32.8444 34.4417 33.1314 35.0669 33.1314H41.4526C42.5115 33.1314 43.3664 32.2766 43.3664 31.2176C43.3664 30.1587 42.5115 29.3038 41.4526 29.3038L41.4334 29.3102ZM51.0024 19.1033V25.4826C51.0024 26.8925 49.8605 28.0344 48.4507 28.0344H40.7955C39.3857 28.0344 38.2438 26.8925 38.2438 25.4826V19.1033C38.2438 17.6935 39.3857 16.5516 40.7955 16.5516H48.4507C49.8605 16.5516 51.0024 17.6935 51.0024 19.1033ZM48.4507 19.1033H45.8989V22.9309L44.6231 21.6551L43.3472 22.9309V19.1033H40.7955V25.4826H48.4507V19.1033Z" fill="#003B90"/>
</svg>
