<svg width="28" height="21" viewBox="0 0 28 21" fill="none" xmlns="http://www.w3.org/2000/svg">
<g clip-path="url(#clip0_10_25)">
<path d="M27.9105 12.9627C27.9701 12.5376 28.0033 12.1091 28.0033 11.6674C28.0033 11.2257 27.9701 10.7972 27.9105 10.3721L25.5772 9.84406C25.4114 9.21635 25.1662 8.62186 24.8447 8.07386L26.1207 6.04792C25.6004 5.35711 24.9839 4.73937 24.2945 4.21794L22.2727 5.4966C21.7258 5.17444 21.1326 4.92867 20.5028 4.76261L19.9758 2.42448C19.5516 2.3647 19.124 2.33149 18.6832 2.33149C18.2424 2.33149 17.8148 2.3647 17.3906 2.42448L16.8636 4.76261C16.2372 4.92867 15.6439 5.17444 15.097 5.4966L13.0753 4.21794C12.3859 4.73937 11.7694 5.35711 11.2457 6.04792L12.5218 8.07386C12.2036 8.62186 11.955 9.21635 11.7893 9.84406L9.45594 10.3721C9.39628 10.7939 9.36646 11.2257 9.36646 11.6674C9.36646 12.1091 9.3996 12.5376 9.45594 12.9627L11.7893 13.4907C11.955 14.1185 12.2003 14.713 12.5218 15.261L11.2457 17.2869C11.7661 17.9777 12.3826 18.5954 13.0753 19.1169L15.097 17.8382C15.6439 18.157 16.2372 18.4061 16.8636 18.5722L17.3906 20.9103C17.8148 20.9701 18.2424 21 18.6832 21C19.124 21 19.5516 20.9668 19.9758 20.9103L20.5028 18.5722C21.1292 18.4061 21.7225 18.1604 22.2727 17.8382L24.2945 19.1169C24.9839 18.5954 25.6004 17.9777 26.1207 17.2869L24.8447 15.261C25.1629 14.713 25.4114 14.1185 25.5772 13.4907L27.9105 12.9627ZM18.6898 15.6994C16.4692 15.6994 14.6662 13.8959 14.6662 11.6674C14.6662 9.43888 16.4659 7.63546 18.6898 7.63546C20.9138 7.63546 22.7135 9.43888 22.7135 11.6674C22.7135 13.8959 20.9138 15.6994 18.6898 15.6994Z" fill="#003B90"/>
<path d="M11.1496 7.50593L9.99953 6.56935C10.0791 6.18409 10.1056 5.78554 10.0791 5.38368L11.3452 4.60984C11.2955 4.35078 11.2292 4.08841 11.143 3.83267C11.0568 3.57362 10.9508 3.32785 10.8348 3.09205L9.35985 3.24482C9.13778 2.90938 8.87595 2.60715 8.57765 2.34809L8.92566 0.90669C8.48153 0.60446 7.99763 0.362012 7.49053 0.195951L6.55587 1.34841C6.1714 1.2687 5.77367 1.24213 5.37263 1.2687L4.60038 0C4.34186 0.0498181 4.08002 0.116242 3.82481 0.202594C3.56629 0.288945 3.32102 0.395224 3.08239 0.511466L3.23816 1.9894C2.90341 2.21192 2.6018 2.4743 2.34659 2.76989L0.90483 2.42116C0.60322 2.8662 0.364583 3.3511 0.195549 3.85924L1.34564 4.79582C1.2661 5.18109 1.23958 5.57963 1.2661 5.9815L0 6.75534C0.0497159 7.01439 0.116004 7.27677 0.202178 7.5325C0.288352 7.79155 0.394413 8.03732 0.510417 8.27645L1.98532 8.12368C2.20739 8.45912 2.46922 8.76135 2.76752 9.01708L2.41951 10.4618C2.86364 10.764 3.34754 11.0032 3.85464 11.1725L4.7893 10.0201C5.17377 10.0998 5.5715 10.1264 5.97254 10.0998L6.74479 11.3685C7.00331 11.3187 7.26515 11.2523 7.52036 11.1659C7.77888 11.0796 8.02415 10.9733 8.25947 10.857L8.10701 9.37909C8.44176 9.15657 8.74337 8.8942 8.99858 8.59861L10.4403 8.94734C10.742 8.50229 10.9806 8.0174 11.1496 7.50925V7.50593ZM6.31723 7.60225C5.25994 7.96094 4.11316 7.39301 3.75521 6.33022C3.39725 5.27076 3.96401 4.12162 5.02131 3.76293C6.0786 3.40424 7.22538 3.97217 7.58333 5.03495C7.94129 6.09442 7.37453 7.24356 6.31392 7.60225H6.31723Z" fill="#003B90"/>
</g>
<defs>
<clipPath id="clip0_10_25">
<rect width="28" height="21" fill="white"/>
</clipPath>
</defs>
</svg>
