<svg width="65" height="65" viewBox="0 0 65 65" fill="none" xmlns="http://www.w3.org/2000/svg">
<rect width="65" height="65" rx="8" fill="#E5EAF4"/>
<g clip-path="url(#clip0_37_11)">
<path d="M22.8497 21.9958L18.5963 23.7857L32.5 30.101L37.1198 28.0026L22.8497 21.9958Z" fill="#003B90"/>
<path d="M42.5801 26.867V31.7896C42.5801 31.908 42.5103 32.0155 42.4008 32.0669L38.3758 33.9145C38.3346 33.9332 38.2886 33.9425 38.2442 33.9425C38.1855 33.9425 38.1284 33.9269 38.0777 33.8942C37.9873 33.8382 37.9333 33.7416 37.9333 33.6372V28.9778L33.1201 31.1634V47L46.548 40.9012C46.8224 40.7766 46.9984 40.5055 46.9984 40.208V24.859L42.5785 26.867H42.5801Z" fill="#003B90"/>
<path d="M41.9267 25.8202L46.4053 23.7857L32.8061 18.0623C32.611 17.9797 32.389 17.9797 32.1939 18.0623L27.8453 19.8927L41.9251 25.8202H41.9267Z" fill="#003B90"/>
<path d="M31.8783 46.4423V31.1634L18 24.859V40.208C18 40.5055 18.176 40.775 18.4504 40.9012L31.8783 47V46.4423V46.4423Z" fill="#003B90"/>
</g>
<defs>
<clipPath id="clip0_37_11">
<rect width="29" height="29" fill="white" transform="translate(18 18)"/>
</clipPath>
</defs>
</svg>
