<svg width="65" height="65" viewBox="0 0 65 65" fill="none" xmlns="http://www.w3.org/2000/svg">
<rect width="65" height="65" rx="8" fill="#E5EAF4"/>
<g clip-path="url(#clip0_37_15)">
<path d="M46.5057 40.6756C44.6332 37.8409 39.5433 36.1189 32.5 36.1189C25.4567 36.1189 20.3668 37.8409 18.4943 40.6756C18.0855 42.3064 18 43.7933 18 44.7622C18 48.7289 24.492 49.9952 32.5 49.9952C40.508 49.9952 47 48.7289 47 44.7622C47 43.7933 46.9145 42.3016 46.5057 40.6708V40.6756ZM32.5 47.1845C22.7763 47.1845 20.7897 45.2755 20.7897 44.767C20.7897 44.2586 22.7763 42.3496 32.5 42.3496C42.2237 42.3496 44.2103 44.2586 44.2103 44.767C44.2103 45.2755 42.2237 47.1845 32.5 47.1845Z" fill="#003B90"/>
<path d="M45.6503 38.2582C44.733 36.2964 43.2027 34.397 40.6649 33.1739C40.6649 33.1739 40.6459 33.1643 40.6364 33.1595C40.413 33.054 40.1801 32.9533 39.9425 32.8525C38.6545 32.1858 36.0977 30.344 36.0977 26.2286C36.0977 23.4035 37.609 22.1995 38.0367 21.9165C38.051 21.9069 38.0652 21.8974 38.0795 21.8878C38.1223 21.859 38.1508 21.8446 38.1508 21.8446C38.8019 21.4273 39.1821 20.8949 39.1821 20.2234C39.1821 17.6093 36.1927 14.9952 32.5048 14.9952C28.8168 14.9952 25.8274 17.6141 25.8274 20.2234C25.8274 20.8949 26.2076 21.4273 26.8635 21.8446C26.8635 21.8446 26.892 21.8638 26.9348 21.8878C26.949 21.8974 26.9633 21.9069 26.9776 21.9165C27.4053 22.1995 28.9166 23.4035 28.9166 26.2286C28.9166 30.3392 26.3597 32.1858 25.0718 32.8525C24.8342 32.9485 24.6013 33.054 24.3779 33.1595C24.3684 33.1595 24.3494 33.1691 24.3494 33.1691C21.8115 34.3922 20.2812 36.2916 19.364 38.2534C22.0777 36.2005 26.6686 35.011 32.5143 35.011C38.3599 35.011 42.9508 36.2005 45.6645 38.2534L45.6503 38.2582Z" fill="#003B90"/>
</g>
<defs>
<clipPath id="clip0_37_15">
<rect width="29" height="35" fill="white" transform="translate(18 15)"/>
</clipPath>
</defs>
</svg>
