<svg width="22" height="22" viewBox="0 0 22 22" fill="none" xmlns="http://www.w3.org/2000/svg">
<g clip-path="url(#clip0_513_811)">
<path d="M21.4345 18.7029L15.4138 12.6822C16.1966 11.414 16.6495 9.92134 16.6495 8.32396C16.6495 3.73408 12.9146 0 8.32475 0C3.73488 0 0 3.73408 0 8.32475C0 12.9154 3.73408 16.6495 8.32475 16.6495C9.92134 16.6495 11.414 16.1966 12.683 15.4138L18.7037 21.4345C19.0805 21.8112 19.5746 22 20.0695 22C20.5644 22 21.0578 21.8112 21.4353 21.4345C22.1896 20.6802 22.1896 19.4572 21.4353 18.7029H21.4345ZM2.41431 8.32475C2.41431 5.06576 5.06576 2.41431 8.32475 2.41431C11.5837 2.41431 14.2352 5.06576 14.2352 8.32475C14.2352 11.5837 11.5837 14.2352 8.32475 14.2352C5.06576 14.2352 2.41431 11.5837 2.41431 8.32475Z" fill="white"/>
</g>
<defs>
<clipPath id="clip0_513_811">
<rect width="22" height="22" fill="white"/>
</clipPath>
</defs>
</svg>
