<svg width="27" height="27" viewBox="0 0 27 27" fill="none" xmlns="http://www.w3.org/2000/svg">
<g clip-path="url(#clip0_7_13)">
<path d="M24.7229 0H6.78761C5.5301 0 4.5105 1.036 4.5105 2.31372V24.6863C4.5105 25.964 5.5301 27 6.78761 27H24.7229C25.9804 27 27 25.964 27 24.6863V2.31372C27 1.036 25.9804 0 24.7229 0ZM10.497 22.56L8.24903 20.2562L9.18124 19.3188L10.463 20.636L13.2014 17.6316L14.1627 18.5344L10.4922 22.5551L10.497 22.56ZM10.497 15.9593L8.24903 13.6554L9.18124 12.7181L10.463 14.0353L13.2014 11.0309L14.1627 11.9337L10.4922 15.9543L10.497 15.9593ZM10.497 9.35849L8.24903 7.05463L9.18124 6.1173L10.463 7.4345L13.2014 4.43011L14.1627 5.33291L10.4922 9.35355L10.497 9.35849ZM23.0381 20.9616H16.1534V19.2152H23.0381V20.9616ZM23.0381 14.3609H16.1534V12.6145H23.0381V14.3609ZM23.0381 7.76009H16.1534V6.0137H23.0381V7.76009Z" fill="#003B90"/>
<path d="M2.20428 22.708H3.36468V18.2236H2.20428C0.985614 18.2236 0 19.2251 0 20.4634C0 21.7016 0.990469 22.7031 2.20428 22.7031V22.708Z" fill="#003B90"/>
<path d="M2.20428 15.7422H3.36468V11.2578H2.20428C0.985614 11.2578 0 12.2642 0 13.4975C0 14.7309 0.990469 15.7373 2.20428 15.7373V15.7422Z" fill="#003B90"/>
<path d="M2.20428 8.77636H3.36468V4.29198H2.20428C0.985614 4.29198 0 5.29344 0 6.5317C0 7.76996 0.990469 8.77142 2.20428 8.77142V8.77636Z" fill="#003B90"/>
</g>
<defs>
<clipPath id="clip0_7_13">
<rect width="27" height="27" fill="white"/>
</clipPath>
</defs>
</svg>
