<svg width="24" height="24" viewBox="0 0 24 24" fill="none" xmlns="http://www.w3.org/2000/svg">
<g clip-path="url(#clip0_67_48)">
<path d="M4.01348 3.30683L0.493408 4.78814L11.9999 10.0146L15.8232 8.27804L4.01348 3.30683Z" fill="#003B90"/>
<path d="M20.3421 7.3382V11.4121C20.3421 11.5101 20.2844 11.5991 20.1938 11.6416L16.8627 13.1706C16.8286 13.1861 16.7906 13.1938 16.7538 13.1938C16.7052 13.1938 16.658 13.1809 16.616 13.1538C16.5412 13.1074 16.4966 13.0275 16.4966 12.9411V9.08509L12.5132 10.8939V24L23.6259 18.9527C23.853 18.8496 23.9987 18.6253 23.9987 18.379V5.67641L20.3408 7.3382H20.3421Z" fill="#003B90"/>
<path d="M19.8015 6.47185L23.5079 4.78814L12.2534 0.0515667C12.0919 -0.0167616 11.9082 -0.0167616 11.7468 0.0515667L8.14795 1.56639L19.8001 6.47185H19.8015Z" fill="#003B90"/>
<path d="M11.4855 23.5385V10.8939L0 5.67641V18.379C0 18.6253 0.145685 18.8483 0.372744 18.9527L11.4855 24V23.5385Z" fill="#003B90"/>
</g>
<defs>
<clipPath id="clip0_67_48">
<rect width="24" height="24" fill="white"/>
</clipPath>
</defs>
</svg>
