<svg width="25" height="18" viewBox="0 0 25 18" fill="none" xmlns="http://www.w3.org/2000/svg">
<g clip-path="url(#clip0_10_18)">
<path d="M7.04834 2.22222C7.04834 3.23444 7.86222 4.05556 8.86552 4.05556H23.1827C24.186 4.05556 24.9999 3.23444 24.9999 2.22222C24.9999 1.21 24.186 0.388889 23.1827 0.388889H8.86552C7.86222 0.388889 7.04834 1.21 7.04834 2.22222Z" fill="#003B90"/>
<path d="M7.04834 9C7.04834 10.0122 7.86222 10.8333 8.86552 10.8333H23.1827C24.186 10.8333 24.9999 10.0122 24.9999 9C24.9999 7.98778 24.186 7.16667 23.1827 7.16667H8.86552C7.86222 7.16667 7.04834 7.98778 7.04834 9Z" fill="#003B90"/>
<path d="M7.04834 15.7778C7.04834 16.79 7.86222 17.6111 8.86552 17.6111H23.1827C24.186 17.6111 24.9999 16.79 24.9999 15.7778C24.9999 14.7656 24.186 13.9444 23.1827 13.9444H8.86552C7.86222 13.9444 7.04834 14.7656 7.04834 15.7778Z" fill="#003B90"/>
<path d="M2.20264 4.44444C0.985683 4.44444 0 3.45 0 2.22222C0 0.994444 0.985683 0 2.20264 0C3.4196 0 4.40529 0.994444 4.40529 2.22222C4.40529 3.45 3.4196 4.44444 2.20264 4.44444Z" fill="#003B90"/>
<path d="M2.20264 18C0.985683 18 0 17.0056 0 15.7778C0 14.55 0.985683 13.5556 2.20264 13.5556C3.4196 13.5556 4.40529 14.55 4.40529 15.7778C4.40529 17.0056 3.4196 18 2.20264 18Z" fill="#003B90"/>
<path d="M2.20264 11.2222C0.985683 11.2222 0 10.2278 0 9C0 7.77222 0.985683 6.77778 2.20264 6.77778C3.4196 6.77778 4.40529 7.77222 4.40529 9C4.40529 10.2278 3.4196 11.2222 2.20264 11.2222Z" fill="#003B90"/>
</g>
<defs>
<clipPath id="clip0_10_18">
<rect width="25" height="18" fill="white"/>
</clipPath>
</defs>
</svg>
