<svg width="22" height="22" viewBox="0 0 22 22" fill="none" xmlns="http://www.w3.org/2000/svg">
<circle cx="11" cy="11" r="11" fill="#D9D9D9"/>
<path d="M9.16 13.208V12.632C9.16 12.1093 9.272 11.6667 9.496 11.304C9.72 10.9307 10.104 10.5467 10.648 10.152C11.128 9.81067 11.4693 9.51733 11.672 9.272C11.8853 9.016 11.992 8.71733 11.992 8.376C11.992 8.04533 11.864 7.78933 11.608 7.608C11.3627 7.42667 11.016 7.336 10.568 7.336C10.12 7.336 9.67733 7.40533 9.24 7.544C8.80267 7.68267 8.35467 7.86933 7.896 8.104L7.048 6.392C7.57067 6.104 8.136 5.86933 8.744 5.688C9.352 5.50667 10.0187 5.416 10.744 5.416C11.8533 5.416 12.712 5.68267 13.32 6.216C13.9387 6.74933 14.248 7.42667 14.248 8.248C14.248 8.68533 14.1787 9.064 14.04 9.384C13.9013 9.704 13.6933 10.0027 13.416 10.28C13.1387 10.5573 12.792 10.8453 12.376 11.144C12.056 11.3787 11.8107 11.576 11.64 11.736C11.48 11.8853 11.368 12.04 11.304 12.2C11.2507 12.3493 11.224 12.5307 11.224 12.744V13.208H9.16ZM8.904 15.88C8.904 15.3893 9.03733 15.048 9.304 14.856C9.57067 14.6533 9.896 14.552 10.28 14.552C10.6533 14.552 10.9733 14.6533 11.24 14.856C11.5067 15.048 11.64 15.3893 11.64 15.88C11.64 16.3493 11.5067 16.6907 11.24 16.904C10.9733 17.1067 10.6533 17.208 10.28 17.208C9.896 17.208 9.57067 17.1067 9.304 16.904C9.03733 16.6907 8.904 16.3493 8.904 15.88Z" fill="#8A8A8A"/>
</svg>
