<svg width="27" height="27" viewBox="0 0 27 27" fill="none" xmlns="http://www.w3.org/2000/svg">
<path d="M13.1449 13.3317C12.277 13.3317 11.5732 12.633 11.5732 11.7713V1.56036C11.5732 0.698649 12.277 0 13.1449 0C14.0128 0 14.7166 0.698649 14.7166 1.56036V11.7713C14.7166 12.633 14.0128 13.3317 13.1449 13.3317Z" fill="#003B90"/>
<path d="M13.1449 27C11.3709 27 9.64957 26.6548 8.02802 25.9737C6.46265 25.3164 5.0568 24.3755 3.85016 23.1775C2.64352 21.9796 1.69582 20.5842 1.03376 19.0297C0.347729 17.4202 0 15.7108 0 13.9496C0 11.8384 0.520218 9.74052 1.50407 7.88292C2.45571 6.08656 3.83916 4.51138 5.50551 3.32824C6.21158 2.82697 7.19307 2.98886 7.69797 3.68985C8.20286 4.39084 8.0398 5.36528 7.33374 5.86655C4.70986 7.73 3.14292 10.7516 3.14292 13.9496C3.14292 19.4249 7.6296 23.8793 13.1445 23.8793C18.6595 23.8793 23.1462 19.4249 23.1462 13.9496C23.1462 10.7626 21.5879 7.74678 18.9777 5.88254C18.2732 5.37933 18.1129 4.4041 18.6198 3.70467C19.1267 3.00525 20.1089 2.84609 20.8134 3.3493C22.4715 4.53322 23.8479 6.10645 24.794 7.89891C25.7724 9.75222 26.2895 11.8447 26.2895 13.9496C26.2895 15.7108 25.9417 17.4198 25.2557 19.0297C24.5937 20.5838 23.6459 21.9796 22.4393 23.1775C21.2327 24.3755 19.8272 25.3164 18.2615 25.9737C16.6399 26.6548 14.9182 27 13.1445 27H13.1449Z" fill="#003B90"/>
</svg>
