<svg width="34" height="34" viewBox="0 0 34 34" fill="none" xmlns="http://www.w3.org/2000/svg">
<g clip-path="url(#clip0_449_836)">
<path d="M17.6077 1.21544C17.9431 1.21544 18.2148 1.48721 18.2148 1.82258V3.03687C18.2148 3.37224 17.9431 3.64401 17.6077 3.64401H12.1434V7.89401C12.1434 8.22938 11.8716 8.50115 11.5363 8.50115H10.322C9.98661 8.50115 9.71484 8.22938 9.71484 7.89401V3.64401C9.71484 2.30251 10.8019 1.21544 12.1434 1.21544H17.6077Z" fill="white"/>
<path d="M12.1434 26.1083V30.3583H17.6077C17.9431 30.3583 18.2148 30.6301 18.2148 30.9654V32.1797C18.2148 32.5151 17.9431 32.7869 17.6077 32.7869H12.1434C10.8019 32.7869 9.71484 31.6998 9.71484 30.3583V26.1083C9.71484 25.7729 9.98661 25.5012 10.322 25.5012H11.5363C11.8716 25.5012 12.1434 25.7729 12.1434 26.1083Z" fill="white"/>
<path d="M0 18.2154V15.7869C0 15.4515 0.271769 15.1797 0.607143 15.1797H12.1429V11.3599C12.1429 11.2009 12.3348 11.1217 12.447 11.2339L18.0796 16.8664C18.1542 16.941 18.1542 17.0619 18.0796 17.1365L12.447 22.7684C12.3348 22.8806 12.1429 22.8014 12.1429 22.6424V18.8226H0.607143C0.271769 18.8226 0 18.5508 0 18.2154Z" fill="white"/>
<path d="M33.0526 3.4665L21.5024 0.0289155C21.0745 -0.0982954 20.6426 0.215106 20.6426 0.652827V33.3397C20.6426 33.7826 21.0797 34.1 21.5128 33.9711L33.0526 30.5364C33.6152 30.3687 33.9997 29.861 33.9997 29.2851V4.71779C33.9997 4.14187 33.6152 3.63419 33.0526 3.4665ZM25.4997 18.2154C25.4997 18.8868 24.9568 19.4297 24.2854 19.4297C23.6141 19.4297 23.0711 18.8868 23.0711 18.2154V15.7869C23.0711 15.1161 23.6141 14.5726 24.2854 14.5726C24.9568 14.5726 25.4997 15.1161 25.4997 15.7869V18.2154Z" fill="white"/>
</g>
<defs>
<clipPath id="clip0_449_836">
<rect width="34" height="34" fill="white"/>
</clipPath>
</defs>
</svg>
